<svg xmlns="http://www.w3.org/2000/svg" style="display: none;">
  <symbol id="github" viewBox="0 0 24 24">
    <path fill-rule="evenodd" clip-rule="evenodd" d="M12 2C6.475 2 2 6.475 2 12C2 16.425 4.8625 20.1625 8.8375 21.4875C9.3375 21.575 9.525 21.275 9.525 21.0125C9.525 20.775 9.5125 19.9875 9.5125 19.15C7 19.6125 6.35 18.5375 6.15 17.975C6.0375 17.6875 5.55 16.8 5.125 16.5625C4.775 16.375 4.275 15.9125 5.1125 15.9C5.9 15.8875 6.4625 16.625 6.65 16.925C7.55 18.4375 8.9875 18.0125 9.5625 17.75C9.65 17.1 9.9125 16.6625 10.2 16.4125C7.975 16.1625 5.65 15.3 5.65 11.475C5.65 10.3875 6.0375 9.4875 6.675 8.7875C6.575 8.5375 6.225 7.5125 6.775 6.1375C6.775 6.1375 7.6125 5.875 9.525 7.1625C10.325 6.9375 11.175 6.825 12.025 6.825C12.875 6.825 13.725 6.9375 14.525 7.1625C16.4375 5.8625 17.275 6.1375 17.275 6.1375C17.825 7.5125 17.475 8.5375 17.375 8.7875C18.0125 9.4875 18.4 10.375 18.4 11.475C18.4 15.3125 16.0625 16.1625 13.8375 16.4125C14.2 16.725 14.5125 17.325 14.5125 18.2625C14.5125 19.6 14.5 20.675 14.5 21.0125C14.5 21.275 14.6875 21.5875 15.1875 21.4875C17.1727 20.8173 18.8977 19.5415 20.1198 17.8395C21.3419 16.1376 21.9995 14.0953 22 12C22 6.475 17.525 2 12 2Z"/>
  </symbol>
  <symbol id="telegram" viewBox="0 0 24 24">
    <path fill-rule="evenodd" clip-rule="evenodd" d="M22 12C22 17.5228 17.5228 22 12 22C6.47715 22 2 17.5228 2 12C2 6.47715 6.47715 2 12 2C17.5228 2 22 6.47715 22 12ZM12.3583 9.38244C11.3857 9.787 9.44177 10.6243 6.52657 11.8944C6.05318 12.0827 5.8052 12.2669 5.78263 12.4469C5.74448 12.7513 6.12559 12.8711 6.64455 13.0343C6.71515 13.0565 6.78829 13.0795 6.86327 13.1038C7.37385 13.2698 8.06068 13.464 8.41773 13.4717C8.74161 13.4787 9.1031 13.3452 9.50219 13.0711C12.226 11.2325 13.632 10.3032 13.7202 10.2831C13.7825 10.269 13.8688 10.2512 13.9273 10.3032C13.9858 10.3552 13.98 10.4536 13.9738 10.48C13.9361 10.641 12.4401 12.0318 11.6659 12.7515C11.4246 12.9759 11.2534 13.135 11.2184 13.1714C11.14 13.2528 11.0601 13.3298 10.9833 13.4038C10.509 13.8611 10.1532 14.204 11.003 14.764C11.4114 15.0331 11.7381 15.2556 12.0641 15.4776C12.4201 15.7201 12.7752 15.9619 13.2347 16.2631C13.3517 16.3398 13.4635 16.4195 13.5724 16.4971C13.9867 16.7925 14.3589 17.0579 14.8188 17.0155C15.086 16.991 15.362 16.7397 15.5022 15.9903C15.8335 14.2193 16.4847 10.382 16.6352 8.80081C16.6484 8.66228 16.6318 8.48498 16.6185 8.40715C16.6051 8.32932 16.5773 8.21842 16.4761 8.13633C16.3563 8.03911 16.1714 8.01861 16.0886 8.02C15.7125 8.0267 15.1354 8.22735 12.3583 9.38244Z"/>
  </symbol>
  <symbol id="youtube" viewBox="0 0 24 24">
    <path fill-rule="evenodd" clip-rule="evenodd" d="M20.5949 4.45999C21.5421 4.71353 22.2865 5.45785 22.54 6.40501C22.9982 8.12002 23 11.7004 23 11.7004C23 11.7004 23 15.2807 22.54 16.9957C22.2865 17.9429 21.5421 18.6872 20.5949 18.9407C18.88 19.4007 12 19.4007 12 19.4007C12 19.4007 5.12002 19.4007 3.405 18.9407C2.45785 18.6872 1.71353 17.9429 1.45999 16.9957C1 15.2807 1 11.7004 1 11.7004C1 11.7004 1 8.12002 1.45999 6.40501C1.71353 5.45785 2.45785 4.71353 3.405 4.45999C5.12002 4 12 4 12 4C12 4 18.88 4 20.5949 4.45999ZM15.5134 11.7007L9.79788 15.0003V8.40101L15.5134 11.7007Z"/>
  </symbol>
</svg>